<svg xmlns="http://www.w3.org/2000/svg" xmlns:xlink="http://www.w3.org/1999/xlink" width="914" height="531" viewBox="0 0 914 531"><defs><filter id="a" x="0" y="136" width="709" height="395" filterUnits="userSpaceOnUse"><feOffset dx="-10" dy="10" input="SourceAlpha"/><feGaussianBlur stdDeviation="3" result="b"/><feFlood flood-opacity="0.161"/><feComposite operator="in" in2="b"/><feComposite in="SourceGraphic"/></filter><filter id="c" x="101" y="69" width="709" height="395" filterUnits="userSpaceOnUse"><feOffset dx="-10" dy="10" input="SourceAlpha"/><feGaussianBlur stdDeviation="3" result="d"/><feFlood flood-opacity="0.161"/><feComposite operator="in" in2="d"/><feComposite in="SourceGraphic"/></filter><filter id="e" x="205" y="0" width="709" height="395" filterUnits="userSpaceOnUse"><feOffset dx="-10" dy="10" input="SourceAlpha"/><feGaussianBlur stdDeviation="3" result="f"/><feFlood flood-opacity="0.161"/><feComposite operator="in" in2="f"/><feComposite in="SourceGraphic"/></filter></defs><g transform="translate(-493.5 -2885)"><g transform="translate(512.5 3021)"><g transform="matrix(1, 0, 0, 1, -19, -136)" filter="url(#a)"><g transform="translate(19 136)" fill="#ffa8ba" stroke="#707070" stroke-width="1"><rect width="690" height="376" rx="14" stroke="none"/><rect x="0.5" y="0.5" width="689" height="375" rx="13.5" fill="none"/></g></g><text transform="translate(33 324)" font-size="48" font-family="HKGrotesk-Bold, HK Grotesk" font-weight="700"><tspan x="0" y="0">Company Branding</tspan></text></g><g transform="translate(613.042 2954.053)"><g transform="matrix(1, 0, 0, 1, -119.54, -69.05)" filter="url(#c)"><g transform="translate(120 69)" fill="#ffa8ba" stroke="#707070" stroke-width="1"><rect width="690" height="376" rx="14" stroke="none"/><rect x="0.5" y="0.5" width="689" height="375" rx="13.5" fill="none"/></g></g><text transform="translate(34.458 321.947)" font-size="48" font-family="HKGrotesk-Bold, HK Grotesk" font-weight="700"><tspan x="0" y="0">Sister&apos;s Wedding</tspan></text></g><g transform="translate(717.078 2884.863)"><g transform="matrix(1, 0, 0, 1, -223.58, 0.14)" filter="url(#e)"><g transform="translate(224)" fill="#ffa8ba" stroke="#707070" stroke-width="1"><rect width="690" height="376" rx="14" stroke="none"/><rect x="0.5" y="0.5" width="689" height="375" rx="13.5" fill="none"/></g></g><text transform="translate(32.422 322.137)" font-size="48" font-family="HKGrotesk-Bold, HK Grotesk" font-weight="700"><tspan x="0" y="0">Home Decorating</tspan></text></g></g></svg>