<?xml version="1.0" encoding="UTF-8" standalone="no"?><!DOCTYPE svg PUBLIC "-//W3C//DTD SVG 1.1//EN" "http://www.w3.org/Graphics/SVG/1.1/DTD/svg11.dtd"><svg width="100%" height="100%" viewBox="0 0 1076 647" version="1.1" xmlns="http://www.w3.org/2000/svg" xmlns:xlink="http://www.w3.org/1999/xlink" xml:space="preserve" xmlns:serif="http://www.serif.com/" style="fill-rule:evenodd;clip-rule:evenodd;stroke-linejoin:round;stroke-miterlimit:2;"><rect x="184" y="248.031" width="612" height="364.87" style="fill:#fa6151;"/><g><path d="M335.46,248.031c-1.293,79.371 -66.938,143.962 -146.32,143.97c-1.72,0 -3.43,-0.03 -5.14,-0.09l0,-143.88l151.46,0Z" style="fill:#ffa8ba;fill-rule:nonzero;"/><path d="M519.937,612.9l-58.207,0c4.476,-12.171 16.135,-20.307 29.104,-20.307c12.968,0 24.627,8.136 29.103,20.307Z" style="fill:#ffa8ba;fill-rule:nonzero;"/><path d="M796,424.171l0,122.9c-32.579,-1.593 -58.52,-28.832 -58.52,-61.45c0,-32.619 25.941,-59.858 58.52,-61.45Z" style="fill:#ffa8ba;fill-rule:nonzero;"/></g><path d="M701.601,398.646c0,-9.952 -8.079,-18.031 -18.031,-18.031l-386.08,0c-9.951,0 -18.031,8.079 -18.031,18.031l0,0c0,9.952 8.08,18.031 18.031,18.031l386.08,0c9.952,0 18.031,-8.079 18.031,-18.031l0,0Z" style="fill:#fff;"/><path d="M701.601,469.71c0,-9.951 -8.079,-18.031 -18.031,-18.031l-386.08,0c-9.951,0 -18.031,8.08 -18.031,18.031l0,0c0,9.952 8.08,18.031 18.031,18.031l386.08,0c9.952,0 18.031,-8.079 18.031,-18.031l0,0Z" style="fill:#fff;"/><path d="M701.601,540.774c0,-9.951 -8.079,-18.031 -18.031,-18.031l-111.942,0c-9.951,0 -18.031,8.08 -18.031,18.031l0,0c0,9.952 8.08,18.032 18.031,18.032l111.942,0c9.952,0 18.031,-8.08 18.031,-18.032l0,0Z" style="fill:#fff;"/><path d="M893.052,112.12c0,0 16.829,6.544 17.763,28.048c0.935,21.503 -4.674,81.338 -4.674,81.338c0,0 20.568,29.918 4.674,38.333c-15.893,8.414 -17.763,-33.658 -17.763,-33.658l-18.699,-88.818c0,0 11.219,-26.178 18.699,-25.243Z" style="fill:#a0616a;fill-rule:nonzero;"/><path d="M721.025,181.304c0,0 -40.202,26.178 -42.072,5.61c-1.87,-20.568 12.154,-100.972 12.154,-100.972c0,0 1.87,-34.593 21.503,-26.178c19.634,8.414 -5.609,37.397 -5.609,37.397l2.804,65.445l18.699,-0.935l-7.479,19.633Z" style="fill:#a0616a;fill-rule:nonzero;"/><path d="M785.535,205.613c0,0 -123.411,-45.812 -116.866,7.479c6.544,53.291 38.332,120.606 38.332,120.606l11.219,17.764l23.373,0l-14.959,-96.298c0,0 53.291,29.918 69.185,25.243c0,0 20.569,137.435 28.048,147.719c7.479,10.284 20.568,134.63 20.568,134.63l12.155,14.959l23.373,0l0,-210.359c0,0 40.202,-130.891 9.349,-137.435c-30.853,-6.545 -103.777,-24.308 -103.777,-24.308Z" style="fill:#00473e;fill-rule:nonzero;"/><path d="M715.415,339.308c0,0 -5.61,-10.285 -14.959,0c-9.349,10.284 -31.787,22.438 -31.787,22.438c0,0 -48.617,11.219 -9.35,20.568c39.267,9.35 43.942,0 43.942,0c0,0 6.544,1.87 12.154,3.74c5.61,1.87 42.072,-4.674 42.072,-10.284c0,-5.61 -12.379,-39.134 -17.408,-34.058c-5.03,5.075 -24.664,-2.404 -24.664,-2.404Z" style="fill:#2f2e41;fill-rule:nonzero;"/><path d="M858.381,568.461c0,0 -13.785,-11.353 -17.029,-8.109c-3.243,3.243 -20.272,25.137 -20.272,25.137c0,0 -45.41,34.868 -4.054,40.545c41.355,5.676 38.922,-9.731 38.922,-9.731l12.975,0c1.621,0 23.515,-9.731 22.704,-13.785c-0.81,-4.055 -10.541,-37.116 -13.785,-34.776c-3.243,2.34 -19.461,0.719 -19.461,0.719Z" style="fill:#2f2e41;fill-rule:nonzero;"/><circle cx="733.179" cy="44.805" r="31.788" style="fill:#a0616a;"/><path d="M755.617,41.065c0,0 24.308,20.568 41.137,20.568c16.829,0 -24.308,38.333 -24.308,38.333l-36.462,-32.723l19.633,-26.178Z" style="fill:#a0616a;fill-rule:nonzero;"/><path d="M764.966,99.966l-0.728,-7.366c0,0 18.492,-32.836 24.102,-35.641c5.609,-2.805 9.349,-2.805 9.349,-2.805c0,0 18.699,-19.634 39.267,-9.349c20.568,10.284 69.185,75.729 69.185,75.729c0,0 -34.593,2.805 -29.918,29.918c0,0 34.593,88.818 25.243,89.753c-9.349,0.935 -37.397,-5.609 -66.38,7.48c-28.983,13.089 -42.072,4.674 -42.072,4.674l-14.959,-48.616c0,0 -28.047,-15.894 -27.113,-29.918l-40.669,18.231l3.74,-34.592l24.775,-28.516c0,0 -4.674,-3.739 26.178,-28.982Z" style="fill:#ffa8ba;fill-rule:nonzero;"/><path d="M703.938,48.241c-1.263,1.404 -2.847,2.483 -4.616,3.144c-1.81,0.511 -4.091,-0.116 -4.813,-1.853l1.344,-1.749l-4.029,-2.504l1.756,-2.06l-3.246,-3.525l2.562,-2.032l-4.877,-3.488c6.321,-10.315 13.157,-20.758 23.137,-27.596c9.979,-6.838 23.924,-9.267 34.148,-2.8c5.308,3.358 9.061,8.687 12.068,14.202c6.046,11.09 11.376,21.901 12.163,34.507c-3.798,-3.698 -9.343,-5.783 -13.142,-9.481c-1.681,-1.785 -3.587,-3.345 -5.669,-4.641c-3.972,-2.24 -8.726,-2.438 -13.173,-3.449c-3.74,-0.85 -6.166,-2.535 -8.996,-4.945c-3.365,-2.867 -3.502,-1.758 -6.901,1.469c-5.901,5.605 -11.807,11.205 -17.716,16.801Z" style="fill:#2f2e41;fill-rule:nonzero;"/></svg>