<?xml version="1.0" encoding="UTF-8" standalone="no"?><!DOCTYPE svg PUBLIC "-//W3C//DTD SVG 1.1//EN" "http://www.w3.org/Graphics/SVG/1.1/DTD/svg11.dtd"><svg width="100%" height="100%" viewBox="0 0 328 90" version="1.1" xmlns="http://www.w3.org/2000/svg" xmlns:xlink="http://www.w3.org/1999/xlink" xml:space="preserve" xmlns:serif="http://www.serif.com/" style="fill-rule:evenodd;clip-rule:evenodd;stroke-linecap:square;stroke-linejoin:round;stroke-miterlimit:1.5;"><path d="M42.448,62.782c-2.925,0 -5.567,-0.521 -7.925,-1.563c-2.358,-1.042 -4.287,-2.532 -5.786,-4.47c-1.499,-1.938 -2.449,-4.223 -2.852,-6.855l7.788,-1.152c0.549,2.23 1.664,3.967 3.346,5.21c1.681,1.243 3.656,1.865 5.923,1.865c1.974,0 3.72,-0.448 5.237,-1.344c1.518,-0.896 2.276,-2.13 2.276,-3.702c0,-0.877 -0.283,-1.645 -0.85,-2.303c-0.567,-0.659 -1.563,-1.207 -2.989,-1.646l-10.256,-3.016c-2.449,-0.695 -4.552,-1.773 -6.307,-3.236c-1.755,-1.462 -2.632,-3.821 -2.632,-7.075c0,-2.559 0.649,-4.725 1.947,-6.499c1.298,-1.773 3.062,-3.107 5.292,-4.003c2.231,-0.896 4.735,-1.326 7.514,-1.289c4.095,0.073 7.513,1.097 10.256,3.071c2.742,1.975 4.588,4.808 5.539,8.501l-8.062,1.371c-0.439,-1.901 -1.417,-3.373 -2.934,-4.415c-1.518,-1.042 -3.263,-1.563 -5.238,-1.563c-1.755,0 -3.272,0.411 -4.552,1.234c-1.28,0.823 -1.919,1.892 -1.919,3.208c0,1.17 0.475,2.066 1.426,2.688c0.95,0.621 2.23,1.133 3.839,1.535l6.855,1.865c1.974,0.548 3.711,1.17 5.21,1.865c1.499,0.694 2.825,1.782 3.976,3.263c1.152,1.481 1.728,3.446 1.728,5.896c0,2.705 -0.741,5.009 -2.221,6.91c-1.481,1.901 -3.428,3.318 -5.841,4.25c-2.413,0.933 -5.009,1.399 -7.788,1.399Z" style="fill:#fff;fill-rule:nonzero;"/><path d="M77.932,31.521c2.779,0 5.228,0.667 7.349,2.002c2.121,1.334 3.766,3.19 4.936,5.566c1.17,2.377 1.755,5.064 1.755,8.062c0,2.962 -0.576,5.631 -1.728,8.007c-1.151,2.377 -2.76,4.242 -4.826,5.595c-2.066,1.352 -4.433,2.029 -7.102,2.029c-2.742,0 -5.101,-0.622 -7.075,-1.865l0,14.205l-7.514,0l0,-42.778l6.582,0l0,1.645c2.047,-1.645 4.588,-2.468 7.623,-2.468Zm-0.823,24.625c2.304,0 4.04,-0.832 5.21,-2.496c1.17,-1.663 1.755,-3.83 1.755,-6.499c0,-2.632 -0.612,-4.789 -1.837,-6.471c-1.225,-1.682 -3.025,-2.523 -5.402,-2.523c-2.23,0 -3.876,0.795 -4.936,2.386c-1.06,1.59 -1.59,3.793 -1.59,6.608c0,5.997 2.266,8.995 6.8,8.995Z" style="fill:#fff;fill-rule:nonzero;"/><path d="M121.094,36.896c0.512,0.987 0.841,1.992 0.987,3.016c0.146,1.024 0.219,2.34 0.219,3.949l0,18.098l-6.526,0l0,-3.62c-1.316,1.573 -2.761,2.706 -4.333,3.401c-1.572,0.694 -3.491,1.042 -5.758,1.042c-2.048,0 -3.821,-0.402 -5.32,-1.207c-1.499,-0.804 -2.633,-1.883 -3.4,-3.236c-0.768,-1.352 -1.152,-2.87 -1.152,-4.552c0,-2.157 0.503,-3.976 1.508,-5.457c1.006,-1.48 2.66,-2.641 4.963,-3.482c1.28,-0.475 2.861,-0.887 4.744,-1.234c1.883,-0.347 4.525,-0.777 7.925,-1.289c-0.183,-1.389 -0.694,-2.404 -1.535,-3.044c-0.841,-0.64 -2.139,-0.959 -3.894,-0.959c-1.28,0 -2.477,0.292 -3.593,0.877c-1.115,0.585 -1.892,1.499 -2.33,2.742l-6.746,-2.139c0.768,-2.559 2.212,-4.579 4.333,-6.06c2.12,-1.481 4.899,-2.221 8.336,-2.221c5.813,0 9.67,1.791 11.572,5.375Zm-6.965,16.069c0.438,-0.914 0.694,-2.432 0.767,-4.552c-2.486,0.402 -4.351,0.74 -5.594,1.014c-1.243,0.275 -2.285,0.558 -3.126,0.85c-1.097,0.439 -1.883,0.924 -2.358,1.454c-0.475,0.53 -0.713,1.179 -0.713,1.947c0,1.023 0.375,1.819 1.124,2.385c0.75,0.567 1.764,0.85 3.044,0.85c1.792,0 3.272,-0.429 4.442,-1.288c1.17,-0.86 1.975,-1.746 2.414,-2.66Z" style="fill:#fff;fill-rule:nonzero;"/><path d="M138.644,33.77c1.682,-1.024 3.656,-1.536 5.923,-1.536c0.402,0 0.969,0.036 1.7,0.11l0,6.965c-0.658,-0.183 -1.353,-0.275 -2.084,-0.275c-1.353,0 -2.596,0.256 -3.73,0.768c-1.316,0.622 -2.321,1.527 -3.016,2.715c-0.695,1.188 -1.042,2.623 -1.042,4.305l0,15.137l-7.513,0l0,-29.615l6.581,0l0,4.771c0.804,-1.426 1.864,-2.541 3.181,-3.345Z" style="fill:#fff;fill-rule:nonzero;"/><path d="M150.929,22.472l7.568,0l0,24.131l10.036,-14.259l9.214,0l-10.694,14.807l11.407,14.808l-9.707,0l-10.256,-14.259l0,14.259l-7.623,0l0.055,-39.487Z" style="fill:#fff;fill-rule:nonzero;"/><path d="M194.803,31.521c2.779,0 5.229,0.667 7.349,2.002c2.121,1.334 3.766,3.19 4.936,5.566c1.17,2.377 1.755,5.064 1.755,8.062c0,2.962 -0.575,5.631 -1.727,8.007c-1.152,2.377 -2.761,4.242 -4.826,5.595c-2.066,1.352 -4.434,2.029 -7.103,2.029c-3.144,0 -5.813,-0.841 -8.007,-2.523l0,1.7l-6.581,0l0,-39.487l7.514,0l0,10.859c1.937,-1.207 4.168,-1.81 6.69,-1.81Zm-0.822,24.625c2.303,0 4.04,-0.832 5.21,-2.496c1.17,-1.663 1.755,-3.83 1.755,-6.499c0,-2.632 -0.613,-4.789 -1.837,-6.471c-1.225,-1.682 -3.026,-2.523 -5.402,-2.523c-2.231,0 -3.876,0.795 -4.936,2.386c-1.061,1.59 -1.591,3.793 -1.591,6.608c0,5.997 2.267,8.995 6.801,8.995Z" style="fill:#fff;fill-rule:nonzero;"/><path d="M227.655,62.782c-2.925,0 -5.521,-0.668 -7.788,-2.002c-2.267,-1.335 -4.031,-3.181 -5.292,-5.539c-1.262,-2.359 -1.893,-5.055 -1.893,-8.09c0,-3.034 0.64,-5.74 1.92,-8.117c1.28,-2.376 3.053,-4.222 5.32,-5.539c2.267,-1.316 4.844,-1.974 7.733,-1.974c2.925,0 5.53,0.667 7.815,2.002c2.285,1.334 4.058,3.181 5.32,5.539c1.261,2.358 1.892,5.055 1.892,8.089c0,3.035 -0.631,5.741 -1.892,8.117c-1.262,2.377 -3.035,4.223 -5.32,5.539c-2.285,1.317 -4.89,1.975 -7.815,1.975Zm0,-6.965c2.303,0 4.067,-0.786 5.292,-2.359c1.225,-1.572 1.837,-3.674 1.837,-6.307c0,-2.705 -0.612,-4.826 -1.837,-6.362c-1.225,-1.535 -2.989,-2.303 -5.292,-2.303c-2.377,0 -4.15,0.777 -5.32,2.331c-1.17,1.554 -1.755,3.665 -1.755,6.334c0,2.706 0.603,4.827 1.81,6.362c1.206,1.536 2.961,2.304 5.265,2.304Z" style="fill:#fff;fill-rule:nonzero;"/><path d="M271.804,36.896c0.512,0.987 0.841,1.992 0.987,3.016c0.146,1.024 0.219,2.34 0.219,3.949l0,18.098l-6.526,0l0,-3.62c-1.316,1.573 -2.761,2.706 -4.333,3.401c-1.572,0.694 -3.491,1.042 -5.758,1.042c-2.048,0 -3.821,-0.402 -5.32,-1.207c-1.499,-0.804 -2.633,-1.883 -3.4,-3.236c-0.768,-1.352 -1.152,-2.87 -1.152,-4.552c0,-2.157 0.503,-3.976 1.508,-5.457c1.006,-1.48 2.66,-2.641 4.963,-3.482c1.28,-0.475 2.861,-0.887 4.744,-1.234c1.883,-0.347 4.525,-0.777 7.925,-1.289c-0.183,-1.389 -0.694,-2.404 -1.535,-3.044c-0.841,-0.64 -2.139,-0.959 -3.894,-0.959c-1.28,0 -2.477,0.292 -3.593,0.877c-1.115,0.585 -1.892,1.499 -2.33,2.742l-6.746,-2.139c0.768,-2.559 2.212,-4.579 4.333,-6.06c2.12,-1.481 4.899,-2.221 8.336,-2.221c5.813,0 9.67,1.791 11.572,5.375Zm-6.965,16.069c0.438,-0.914 0.694,-2.432 0.767,-4.552c-2.486,0.402 -4.351,0.74 -5.594,1.014c-1.243,0.275 -2.285,0.558 -3.126,0.85c-1.097,0.439 -1.883,0.924 -2.358,1.454c-0.475,0.53 -0.713,1.179 -0.713,1.947c0,1.023 0.375,1.819 1.124,2.385c0.75,0.567 1.764,0.85 3.044,0.85c1.792,0 3.272,-0.429 4.442,-1.288c1.17,-0.86 1.975,-1.746 2.414,-2.66Z" style="fill:#fff;fill-rule:nonzero;"/><path d="M289.354,33.77c1.682,-1.024 3.656,-1.536 5.923,-1.536c0.402,0 0.969,0.036 1.7,0.11l0,6.965c-0.658,-0.183 -1.353,-0.275 -2.084,-0.275c-1.353,0 -2.596,0.256 -3.73,0.768c-1.316,0.622 -2.321,1.527 -3.016,2.715c-0.695,1.188 -1.042,2.623 -1.042,4.305l0,15.137l-7.513,0l0,-29.615l6.581,0l0,4.771c0.804,-1.426 1.864,-2.541 3.181,-3.345Z" style="fill:#fff;fill-rule:nonzero;"/><path d="M327.689,22.472l0,39.487l-6.581,0l0,-1.7c-2.194,1.682 -4.863,2.523 -8.007,2.523c-2.669,0 -5.037,-0.677 -7.102,-2.029c-2.066,-1.353 -3.675,-3.218 -4.827,-5.595c-1.151,-2.376 -1.727,-5.045 -1.727,-8.007c0,-2.998 0.585,-5.685 1.755,-8.062c1.17,-2.376 2.815,-4.232 4.936,-5.566c2.12,-1.335 4.57,-2.002 7.349,-2.002c2.523,0 4.753,0.603 6.691,1.81l0,-10.859l7.513,0Zm-13.382,33.674c4.534,0 6.801,-2.998 6.801,-8.995c0,-2.815 -0.53,-5.018 -1.59,-6.608c-1.061,-1.591 -2.706,-2.386 -4.936,-2.386c-2.377,0 -4.178,0.841 -5.402,2.523c-1.225,1.682 -1.838,3.839 -1.838,6.471c0,2.669 0.585,4.836 1.755,6.499c1.17,1.664 2.907,2.496 5.21,2.496Z" style="fill:#fff;fill-rule:nonzero;"/><g><path d="M14.485,3.194l0,4.516" style="fill:none;stroke:#fb6151;stroke-width:4.52px;"/><path d="M25.776,14.485l-4.517,0" style="fill:none;stroke:#fb6151;stroke-width:4.52px;"/><path d="M7.71,14.485l-4.516,0" style="fill:none;stroke:#fb6151;stroke-width:4.52px;"/><path d="M14.485,21.259l0,4.517" style="fill:none;stroke:#fb6151;stroke-width:4.52px;"/></g><path d="M268.857,78.402c1.088,0 1.944,0.368 2.568,1.104c0.624,0.736 0.936,1.728 0.936,2.976c0,1.216 -0.304,2.2 -0.912,2.952c-0.608,0.752 -1.472,1.128 -2.592,1.128c-0.565,0 -1.066,-0.104 -1.504,-0.312c-0.437,-0.208 -0.805,-0.499 -1.104,-0.872l0,1.056l-1.104,0l0,-11.152l1.104,0l0,4.32c0.299,-0.384 0.67,-0.68 1.112,-0.888c0.443,-0.208 0.942,-0.312 1.496,-0.312Zm-0.16,7.184c0.822,0 1.454,-0.286 1.896,-0.856c0.443,-0.571 0.664,-1.32 0.664,-2.248c0,-0.95 -0.229,-1.704 -0.688,-2.264c-0.458,-0.56 -1.082,-0.84 -1.872,-0.84c-0.789,0 -1.41,0.282 -1.864,0.848c-0.453,0.565 -0.68,1.317 -0.68,2.256c0,0.928 0.222,1.677 0.664,2.248c0.443,0.57 1.07,0.856 1.88,0.856Z" style="fill:#fff;fill-rule:nonzero;"/><path d="M276.345,86.338l-3.344,-7.792l1.216,0l2.72,6.496l2.384,-6.496l1.216,0l-4.32,11.152l-1.184,0l1.312,-3.36Z" style="fill:#fff;fill-rule:nonzero;"/><path d="M289.625,86.594c-1.034,0 -1.909,-0.283 -2.624,-0.848c-0.714,-0.566 -1.146,-1.318 -1.296,-2.256l1.136,-0.272c0.107,0.714 0.411,1.285 0.912,1.712c0.502,0.426 1.131,0.64 1.888,0.64c0.779,0 1.379,-0.182 1.8,-0.544c0.422,-0.363 0.632,-0.832 0.632,-1.408c0,-0.406 -0.085,-0.752 -0.256,-1.04c-0.17,-0.288 -0.445,-0.552 -0.824,-0.792c-0.378,-0.24 -0.904,-0.488 -1.576,-0.744c-0.768,-0.288 -1.37,-0.576 -1.808,-0.864c-0.437,-0.288 -0.752,-0.611 -0.944,-0.968c-0.192,-0.358 -0.288,-0.782 -0.288,-1.272c0,-0.843 0.291,-1.523 0.872,-2.04c0.582,-0.518 1.347,-0.776 2.296,-0.776c0.704,0 1.328,0.154 1.872,0.464c0.544,0.309 0.982,0.757 1.312,1.344l-0.96,0.592c-0.245,-0.438 -0.562,-0.776 -0.952,-1.016c-0.389,-0.24 -0.824,-0.36 -1.304,-0.36c-0.576,0 -1.053,0.17 -1.432,0.512c-0.378,0.341 -0.568,0.752 -0.568,1.232c0,0.49 0.192,0.898 0.576,1.224c0.384,0.325 1.035,0.664 1.952,1.016c0.822,0.309 1.462,0.626 1.92,0.952c0.459,0.325 0.784,0.68 0.976,1.064c0.192,0.384 0.288,0.842 0.288,1.376c0,0.949 -0.314,1.698 -0.944,2.248c-0.629,0.549 -1.514,0.824 -2.656,0.824Z" style="fill:#fff;fill-rule:nonzero;"/><path d="M301.849,82.098c0,0.266 -0.016,0.496 -0.048,0.688l-5.776,0c0.011,0.864 0.243,1.541 0.696,2.032c0.454,0.49 1.07,0.736 1.848,0.736c0.459,0 0.867,-0.072 1.224,-0.216c0.358,-0.144 0.707,-0.403 1.048,-0.776l0.768,0.672c-0.458,0.48 -0.928,0.821 -1.408,1.024c-0.48,0.202 -1.029,0.304 -1.648,0.304c-0.778,0 -1.44,-0.176 -1.984,-0.528c-0.544,-0.352 -0.954,-0.835 -1.232,-1.448c-0.277,-0.614 -0.416,-1.299 -0.416,-2.056c0,-0.758 0.136,-1.448 0.408,-2.072c0.272,-0.624 0.672,-1.12 1.2,-1.488c0.528,-0.368 1.16,-0.552 1.896,-0.552c0.768,0 1.408,0.176 1.92,0.528c0.512,0.352 0.891,0.808 1.136,1.368c0.246,0.56 0.368,1.154 0.368,1.784Zm-3.424,-2.752c-0.693,0 -1.253,0.237 -1.68,0.712c-0.426,0.474 -0.666,1.074 -0.72,1.8l4.768,0c0,-0.011 -0.002,-0.035 -0.008,-0.072c-0.005,-0.038 -0.008,-0.099 -0.008,-0.184c-0.042,-0.662 -0.269,-1.203 -0.68,-1.624c-0.41,-0.422 -0.968,-0.632 -1.672,-0.632Z" style="fill:#fff;fill-rule:nonzero;"/><path d="M307.353,78.418c0.502,0 0.955,0.112 1.36,0.336l-0.544,0.896c-0.373,-0.16 -0.72,-0.24 -1.04,-0.24c-0.629,0 -1.138,0.229 -1.528,0.688c-0.389,0.458 -0.584,1.104 -0.584,1.936l0,4.4l-1.104,0l0,-7.888l1.104,0l0,1.184c0.267,-0.48 0.606,-0.819 1.016,-1.016c0.411,-0.198 0.851,-0.296 1.32,-0.296Z" style="fill:#fff;fill-rule:nonzero;"/><path d="M312.185,85.474c0.758,0.117 1.355,0.232 1.792,0.344c0.438,0.112 0.819,0.312 1.144,0.6c0.326,0.288 0.488,0.698 0.488,1.232c0,0.714 -0.304,1.256 -0.912,1.624c-0.608,0.368 -1.429,0.552 -2.464,0.552c-1.109,0 -1.973,-0.211 -2.592,-0.632c-0.618,-0.422 -0.928,-1.022 -0.928,-1.8c0,-0.107 0.011,-0.224 0.032,-0.352l1.28,-1.088c-0.682,-0.31 -1.024,-0.811 -1.024,-1.504c0,-0.619 0.283,-1.12 0.848,-1.504c-0.448,-0.512 -0.672,-1.11 -0.672,-1.792c0,-0.523 0.134,-0.992 0.4,-1.408c0.267,-0.416 0.627,-0.742 1.08,-0.976c0.454,-0.235 0.963,-0.352 1.528,-0.352c0.768,0 1.424,0.213 1.968,0.64l1.088,-0.944l0.576,0.72l-1.072,0.896c0.288,0.458 0.432,0.954 0.432,1.488c0,0.522 -0.13,0.989 -0.392,1.4c-0.261,0.41 -0.618,0.728 -1.072,0.952c-0.453,0.224 -0.957,0.336 -1.512,0.336c-0.608,0 -1.152,-0.134 -1.632,-0.4c-0.16,0.085 -0.285,0.197 -0.376,0.336c-0.09,0.138 -0.136,0.293 -0.136,0.464c0,0.362 0.176,0.621 0.528,0.776c0.352,0.154 0.886,0.285 1.6,0.392Zm0.016,-6.128c-0.565,0 -1.029,0.17 -1.392,0.512c-0.362,0.341 -0.544,0.784 -0.544,1.328c0,0.522 0.176,0.954 0.528,1.296c0.352,0.341 0.816,0.512 1.392,0.512c0.576,0 1.035,-0.168 1.376,-0.504c0.342,-0.336 0.512,-0.771 0.512,-1.304c0,-0.544 -0.17,-0.987 -0.512,-1.328c-0.341,-0.342 -0.794,-0.512 -1.36,-0.512Zm0.08,9.552c0.704,0 1.251,-0.099 1.64,-0.296c0.39,-0.198 0.584,-0.483 0.584,-0.856c0,-0.299 -0.112,-0.531 -0.336,-0.696c-0.224,-0.166 -0.493,-0.286 -0.808,-0.36c-0.314,-0.075 -0.786,-0.16 -1.416,-0.256c-0.394,-0.054 -0.746,-0.118 -1.056,-0.192l-1.072,1.04l-0.016,0.144c0,0.522 0.227,0.898 0.68,1.128c0.454,0.229 1.054,0.344 1.8,0.344Z" style="fill:#fff;fill-rule:nonzero;"/><path d="M317.641,78.546l1.104,0l0,7.888l-1.104,0l0,-7.888Zm-0.096,-3.264l1.28,0l0,1.632l-1.28,0l0,-1.632Z" style="fill:#fff;fill-rule:nonzero;"/><path d="M323.337,82.482l-2.88,-3.936l1.344,0l2.272,3.168l2.256,-3.168l1.344,0l-2.88,3.936l2.896,3.952l-1.36,0l-2.256,-3.2l-2.256,3.2l-1.36,0l2.88,-3.952Z" style="fill:#fff;fill-rule:nonzero;"/></svg>