<?xml version="1.0" encoding="UTF-8" standalone="no"?><!DOCTYPE svg PUBLIC "-//W3C//DTD SVG 1.1//EN" "http://www.w3.org/Graphics/SVG/1.1/DTD/svg11.dtd"><svg width="100%" height="100%" viewBox="0 0 1565 259" version="1.1" xmlns="http://www.w3.org/2000/svg" xmlns:xlink="http://www.w3.org/1999/xlink" xml:space="preserve" xmlns:serif="http://www.serif.com/" style="fill-rule:evenodd;clip-rule:evenodd;stroke-linecap:round;stroke-linejoin:round;stroke-miterlimit:1.5;"><path d="M170.135,9.375l69.622,50.584l-34.811,47.913l56.326,18.302l-26.594,81.846l-56.325,-18.301l0,59.224l-86.059,0l0,-59.224l-56.325,18.301l-26.594,-81.846l56.326,-18.302l-34.811,-47.913l69.622,-50.584l34.812,47.914l34.811,-47.914Z" style="fill:#fb5246;stroke:#000;stroke-width:18.75px;"/><path d="M339.468,151.346c0,30.217 24.382,53.436 66.229,53.436c41.84,0 62.74,-20.897 62.74,-48.787c0,-26.736 -15.095,-40.685 -47.625,-46.497l-25.579,-4.65c-17.441,-3.255 -22.092,-9.3 -22.092,-18.599c0,-11.625 9.302,-20.924 30.23,-20.924c20.928,0 32.555,11.624 32.555,25.573l30.189,0c0,-30.217 -20.9,-53.436 -62.744,-53.436c-38.357,0 -60.416,22.058 -60.416,48.787c0,23.249 12.771,39.523 40.65,44.173l27.905,4.649c20.928,3.488 26.738,11.625 26.738,20.924c0,11.625 -9.298,20.924 -32.552,20.924c-22.089,0 -36.041,-11.624 -36.041,-25.573l-30.187,0Z" style="fill-rule:nonzero;"/><path d="M581.194,143.203c0,22.09 -12.79,34.878 -30.23,34.878c-17.441,0 -30.231,-12.788 -30.231,-34.878c0,-22.09 12.79,-34.879 30.231,-34.879c17.44,0 30.23,12.789 30.23,34.879Zm-89.485,105.74l29.024,0l0,-58.092l1.163,0c0,0 9.302,13.931 33.719,13.931c30.223,0 54.603,-24.379 54.603,-61.579c0,-37.201 -24.38,-61.579 -54.603,-61.579c-23.255,0 -33.719,15.091 -33.719,15.091l-1.163,0l-2.322,-12.767l-26.702,0l0,164.995Z" style="fill-rule:nonzero;"/><path d="M706.702,202.457l24.381,0l0,-75.513c0,-25.589 -19.737,-45.32 -49.956,-45.32c-31.388,0 -47.642,18.571 -49.964,38.339l29.032,0c1.163,-6.981 8.14,-15.126 20.932,-15.126c12.791,0 20.931,9.309 20.931,22.107l0,2.327l-26.745,0c-32.54,0 -48.794,16.249 -48.794,39.484c0,19.777 16.254,36.027 42.979,36.027c23.258,0 33.721,-13.929 33.721,-13.929l1.161,0l2.322,11.604Zm-4.644,-47.647c0,16.289 -10.465,26.758 -27.908,26.758c-11.629,0 -18.606,-5.816 -18.606,-15.123c0,-9.306 6.977,-15.122 22.094,-15.122l24.42,0l0,3.487Z" style="fill-rule:nonzero;"/><path d="M757.842,202.457l29.025,0l0,-68.566c0,-15.108 6.973,-22.081 22.08,-22.081l20.919,0l0,-27.862l-23.243,0c-13.946,0 -20.917,10.448 -20.917,10.448l-1.161,0l-2.322,-10.448l-24.381,0l0,118.509Z" style="fill-rule:nonzero;"/><path d="M846.162,202.457l29.025,0l0,-55.769l46.485,55.769l33.702,0l-51.134,-60.416l48.81,-58.093l-33.702,0l-44.161,53.445l0,-97.606l-29.025,0l0,162.67Z" style="fill-rule:nonzero;"/><path d="M1025.12,178.081c-17.441,0 -30.231,-12.788 -30.231,-34.878c0,-22.09 12.79,-34.879 30.231,-34.879c17.44,0 30.23,12.789 30.23,34.879c0,22.09 -12.79,34.878 -30.23,34.878Zm-59.255,24.376l25.541,0l2.322,-12.783l1.161,0c0,0.016 10.465,15.108 34.881,15.108c30.223,0 54.604,-24.379 54.604,-61.579c0,-37.201 -24.381,-61.579 -54.604,-61.579c-23.254,0 -33.718,15.091 -33.718,15.091l-1.163,0l0,-56.928l-29.024,0l0,162.67Z" style="fill-rule:nonzero;"/><path d="M1161.09,178.081c-17.44,0 -31.392,-13.951 -31.392,-34.878c0,-20.927 13.952,-34.879 31.392,-34.879c17.44,0 31.392,13.952 31.392,34.879c0,20.927 -13.952,34.878 -31.392,34.878Zm0,-96.457c-34.876,0 -60.417,25.539 -60.417,61.579c0,36.039 25.541,61.579 60.417,61.579c34.875,0 60.417,-25.54 60.417,-61.579c0,-36.04 -25.542,-61.579 -60.417,-61.579Z" style="fill-rule:nonzero;"/><path d="M1317.99,202.457l24.381,0l0,-75.513c0,-25.589 -19.737,-45.32 -49.957,-45.32c-31.388,0 -47.641,18.571 -49.963,38.339l29.032,0c1.163,-6.981 8.14,-15.126 20.931,-15.126c12.792,0 20.932,9.309 20.932,22.107l0,2.327l-26.746,0c-32.54,0 -48.793,16.249 -48.793,39.484c0,19.777 16.253,36.027 42.979,36.027c23.257,0 33.721,-13.929 33.721,-13.929l1.161,0l2.322,11.604Zm-4.644,-47.647c0,16.289 -10.466,26.758 -27.909,26.758c-11.628,0 -18.606,-5.816 -18.606,-15.123c0,-9.306 6.978,-15.122 22.095,-15.122l24.42,0l0,3.487Z" style="fill-rule:nonzero;"/><path d="M1369.12,202.457l29.024,0l0,-68.566c0,-15.108 6.973,-22.081 22.081,-22.081l20.919,0l0,-27.862l-23.243,0c-13.946,0 -20.918,10.448 -20.918,10.448l-1.161,0l-2.322,-10.448l-24.38,0l0,118.509Z" style="fill-rule:nonzero;"/><path d="M1505.08,178.081c-17.44,0 -30.23,-12.788 -30.23,-34.878c0,-22.09 12.79,-34.879 30.23,-34.879c17.441,0 30.23,12.789 30.23,34.879c0,22.09 -12.789,34.878 -30.23,34.878Zm33.713,24.376l25.542,0l0,-162.67l-29.025,0l0,56.928l-1.162,0c0,0 -10.464,-15.091 -33.719,-15.091c-30.223,0 -54.604,24.378 -54.604,61.564c0,37.215 24.381,61.594 54.604,61.594c24.417,0 34.881,-15.092 34.881,-15.092l1.161,0l2.322,12.767Z" style="fill-rule:nonzero;"/></svg>